<?xml version="1.0" encoding="UTF-8"?>
<svg width="1800" height="1100" viewBox="0 0 1800 1100" fill="none" xmlns="http://www.w3.org/2000/svg">
  <defs>
    <linearGradient id="bg" x1="0" y1="0" x2="1800" y2="1100" gradientUnits="userSpaceOnUse">
      <stop stop-color="#0E0B18"/>
      <stop offset="1" stop-color="#182842"/>
    </linearGradient>
    <linearGradient id="panel" x1="0" y1="0" x2="1" y2="1">
      <stop stop-color="#1D1530"/>
      <stop offset="1" stop-color="#16243C"/>
    </linearGradient>
    <filter id="soft"><feGaussianBlur stdDeviation="24"/></filter>
  </defs>
  <rect width="1800" height="1100" rx="36" fill="url(#bg)"/>
  <circle cx="160" cy="130" r="130" fill="#F472B6" fill-opacity="0.12" filter="url(#soft)"/>
  <circle cx="1530" cy="120" r="150" fill="#22D3EE" fill-opacity="0.10" filter="url(#soft)"/>
  <text x="90" y="88" fill="#FAFBFF" font-size="48" font-family="Arial, Helvetica, sans-serif" font-weight="700">Ground Floor Optimisation Plan</text>
  <text x="90" y="130" fill="#AFC0E8" font-size="24" font-family="Arial, Helvetica, sans-serif">Burwood Night Market, refined layout and circulation strategy</text>
  <g transform="translate(70 180)">
    <rect width="1140" height="760" rx="34" fill="url(#panel)" stroke="rgba(255,255,255,0.16)" stroke-width="2"/>
    
  <rect x="54" y="58" width="1028" height="630" rx="26" fill="rgba(255,255,255,0.03)" stroke="rgba(255,255,255,0.14)" stroke-width="2"/>
  <rect x="88" y="132" width="190" height="126" rx="24" fill="#F472B6" fill-opacity="0.24" stroke="#F472B6" stroke-width="2"/>
  <rect x="326" y="132" width="560" height="84" rx="22" fill="#FFB020" fill-opacity="0.24" stroke="#FFB020" stroke-width="2"/>
  <rect x="326" y="254" width="268" height="150" rx="24" fill="#22C7A8" fill-opacity="0.20" stroke="#22C7A8" stroke-width="2"/>
  <rect x="630" y="254" width="220" height="150" rx="24" fill="#F472B6" fill-opacity="0.18" stroke="#F472B6" stroke-width="2"/>
  <rect x="892" y="224" width="132" height="186" rx="66" fill="#38BDF8" fill-opacity="0.22" stroke="#38BDF8" stroke-width="3"/>
  <rect x="928" y="92" width="106" height="92" rx="22" fill="#FFB020" fill-opacity="0.18" stroke="#FFB020" stroke-dasharray="10 10"/>
  <rect x="88" y="446" width="946" height="186" rx="24" fill="rgba(255,255,255,0.02)" stroke="rgba(255,255,255,0.09)" stroke-dasharray="10 12"/>
  <path d="M185 320 C320 320, 460 318, 602 318 C706 318, 810 320, 956 320" stroke="#38BDF8" stroke-width="16" stroke-linecap="round"/>
  <path d="M956 320 C996 320, 1030 294, 1060 246" stroke="#38BDF8" stroke-width="16" stroke-linecap="round"/>
  <circle cx="185" cy="320" r="12" fill="#38BDF8"/>
  <circle cx="602" cy="318" r="12" fill="#38BDF8"/>
  <circle cx="956" cy="320" r="12" fill="#38BDF8"/>
  <text x="100" y="486" fill="#FFFFFF" font-size="24" font-family="Arial, Helvetica, sans-serif" font-weight="700">Operational layering</text>
  <text x="100" y="524" fill="#C8D3EF" font-size="20" font-family="Arial, Helvetica, sans-serif">Backfill this strip with visible support retail, queue spill control, and secondary merch moments so the floor stays active edge-to-edge.</text>
  
  <g>
    <rect x="70" y="22" width="290" height="88" rx="18" fill="rgba(7,10,18,0.72)" stroke="#F472B6"/>
    <text x="88" y="56" fill="#FFFFFF" font-size="24" font-family="Arial, Helvetica, sans-serif" font-weight="700">Feature entry gate</text>
    <text x="88" y="84" fill="#D9E3F9" font-size="18" font-family="Arial, Helvetica, sans-serif">Street-facing neon arrival and sign moment</text>
  </g>
  
  <g>
    <rect x="338" y="22" width="290" height="88" rx="18" fill="rgba(7,10,18,0.72)" stroke="#FFB020"/>
    <text x="356" y="56" fill="#FFFFFF" font-size="24" font-family="Arial, Helvetica, sans-serif" font-weight="700">Primary market spine</text>
    <text x="356" y="84" fill="#D9E3F9" font-size="18" font-family="Arial, Helvetica, sans-serif">High-traffic kiosk and food frontage run</text>
  </g>
  
  <g>
    <rect x="316" y="416" width="290" height="88" rx="18" fill="rgba(7,10,18,0.72)" stroke="#22C7A8"/>
    <text x="334" y="450" fill="#FFFFFF" font-size="24" font-family="Arial, Helvetica, sans-serif" font-weight="700">Social seating pocket</text>
    <text x="334" y="478" fill="#D9E3F9" font-size="18" font-family="Arial, Helvetica, sans-serif">Pause, share, and family dwell zone</text>
  </g>
  
  <g>
    <rect x="618" y="416" width="290" height="88" rx="18" fill="rgba(7,10,18,0.72)" stroke="#F472B6"/>
    <text x="636" y="450" fill="#FFFFFF" font-size="24" font-family="Arial, Helvetica, sans-serif" font-weight="700">Activation strip</text>
    <text x="636" y="478" fill="#D9E3F9" font-size="18" font-family="Arial, Helvetica, sans-serif">Demo, pop-up, and festival programming edge</text>
  </g>
  
  <g>
    <rect x="834" y="438" width="290" height="88" rx="18" fill="rgba(7,10,18,0.72)" stroke="#38BDF8"/>
    <text x="852" y="472" fill="#FFFFFF" font-size="24" font-family="Arial, Helvetica, sans-serif" font-weight="700">Escalator core</text>
    <text x="852" y="500" fill="#D9E3F9" font-size="18" font-family="Arial, Helvetica, sans-serif">Vertical circulation and reveal anchor</text>
  </g>

  </g>
  <g transform="translate(1240 180)">
    <rect width="490" height="760" rx="32" fill="rgba(10,14,25,0.55)" stroke="rgba(255,255,255,0.12)"/>
    <text x="34" y="52" fill="#FFFFFF" font-size="28" font-family="Arial, Helvetica, sans-serif" font-weight="700">Design legend</text>
    <rect x="36" y="86" width="28" height="28" rx="8" fill="#FFB020"/><text x="82" y="107" fill="#D7E0F7" font-size="21" font-family="Arial, Helvetica, sans-serif">Food kiosks / active frontage</text>
    <rect x="36" y="128" width="28" height="28" rx="8" fill="#22C7A8"/><text x="82" y="149" fill="#D7E0F7" font-size="21" font-family="Arial, Helvetica, sans-serif">Dining / seating dwell zone</text>
    <rect x="36" y="170" width="28" height="28" rx="8" fill="#F472B6"/><text x="82" y="191" fill="#D7E0F7" font-size="21" font-family="Arial, Helvetica, sans-serif">Activation / photo / event zone</text>
    <rect x="36" y="212" width="28" height="28" rx="8" fill="#38BDF8"/><text x="82" y="233" fill="#D7E0F7" font-size="21" font-family="Arial, Helvetica, sans-serif">Escalator / circulation anchor</text>
    <path d="M40 286 C100 286, 140 270, 188 246" stroke="#38BDF8" stroke-width="10" stroke-linecap="round"/>
    <text x="212" y="286" fill="#D7E0F7" font-size="21" font-family="Arial, Helvetica, sans-serif">Primary visitor movement</text>
    <text x="34" y="350" fill="#FFFFFF" font-size="28" font-family="Arial, Helvetica, sans-serif" font-weight="700">Planning notes</text>
    
  <circle cx="48" cy="404" r="6" fill="#FFB020"/>
  <text x="68" y="412" fill="#F6F8FF" font-size="22" font-family="Arial, Helvetica, sans-serif" font-weight="700">Arrival sequencing</text>
  <text x="68" y="444" fill="#B8C7E9" font-size="19" font-family="Arial, Helvetica, sans-serif">Front-load identity and glow so the market reads from outside before customers enter.</text>

  <circle cx="48" cy="492" r="6" fill="#FFB020"/>
  <text x="68" y="500" fill="#F6F8FF" font-size="22" font-family="Arial, Helvetica, sans-serif" font-weight="700">Commercial visibility</text>
  <text x="68" y="532" fill="#B8C7E9" font-size="19" font-family="Arial, Helvetica, sans-serif">Keep the spine continuous so food tenants benefit from the same primary walk path.</text>

  <circle cx="48" cy="580" r="6" fill="#FFB020"/>
  <text x="68" y="588" fill="#F6F8FF" font-size="22" font-family="Arial, Helvetica, sans-serif" font-weight="700">Escalator conversion</text>
  <text x="68" y="620" fill="#B8C7E9" font-size="19" font-family="Arial, Helvetica, sans-serif">Turn the vertical connection into a reason to continue upstairs rather than leave.</text>

  </g>
</svg>